<?xml version="1.0" encoding="UTF-8" standalone="no"?>
<svg
   width="198.042"
   height="178.453"
   viewBox="0 0 198.042 178.453"
   version="1.1"
   id="svg19"
   sodipodi:docname="arbitrum.svg"
   inkscape:version="1.2.2 (b0a84865, 2022-12-01)"
   xmlns:inkscape="http://www.inkscape.org/namespaces/inkscape"
   xmlns:sodipodi="http://sodipodi.sourceforge.net/DTD/sodipodi-0.dtd"
   xmlns="http://www.w3.org/2000/svg"
   xmlns:svg="http://www.w3.org/2000/svg">
  <defs
     id="defs23" />
  <sodipodi:namedview
     id="namedview21"
     pagecolor="#505050"
     bordercolor="#eeeeee"
     borderopacity="1"
     inkscape:showpageshadow="0"
     inkscape:pageopacity="0"
     inkscape:pagecheckerboard="0"
     inkscape:deskcolor="#505050"
     showgrid="false"
     inkscape:zoom="1.322477"
     inkscape:cx="102.45925"
     inkscape:cy="92.251129"
     inkscape:window-width="1383"
     inkscape:window-height="746"
     inkscape:window-x="62"
     inkscape:window-y="38"
     inkscape:window-maximized="0"
     inkscape:current-layer="arbitrum" />
  <g
     id="arbirtum_logo"
     data-name="arbirtum logo"
     transform="translate(-856.479 -718)">
    <g
       id="Group_1"
       data-name="Group 1"
       transform="matrix(1.1585276,0,0,1.1585276,877.76332,717.95253)">
      <path
         id="Polygon_1"
         data-name="Polygon 1"
         d="m 103.926,0 a 20,20 0 0 1 17.341,10.035 l 27.007,47 a 20,20 0 0 1 0,19.929 l -27.007,47 A 20,20 0 0 1 103.926,134 H 50.074 A 20,20 0 0 1 32.733,123.965 l -27.007,-47 a 20,20 0 0 1 0,-19.929 l 27.007,-47 A 20,20 0 0 1 50.074,0 Z"
         transform="rotate(90,66.912,67.186)"
         fill="#1d86cc" />
    </g>
    <g
       id="arbitrum"
       transform="translate(-1311.275 228.562)">
      <path
         id="Path_83"
         data-name="Path 83"
         d="m 2260.0619,505.05266 -53.7557,31.04854 a 13.438921,13.438921 0 0 0 -6.7194,11.6432 l 0.034,62.16544 a 13.438921,13.438921 0 0 0 6.7125,11.62582 l 53.8182,31.1111 a 13.438921,13.438921 0 0 0 13.4389,0 l 53.7557,-31.03927 a 13.438921,13.438921 0 0 0 6.7195,-11.6432 l -0.034,-62.16543 a 13.438921,13.438921 0 0 0 -6.7125,-11.62467 l -53.8183,-31.11226 a 13.438921,13.438921 0 0 0 -13.4389,0 z"
         fill="#ffffff"
         style="stroke-width:1.15853" />
      <path
         id="Path_84"
         data-name="Path 84"
         d="m 2242.319,631.63455 a 2.5151635,2.5151635 0 0 1 0.5283,-1.10176 q 24.1206,-40.92847 48.2492,-81.85345 c 0.2236,-0.37884 0.431,-0.76811 0.621,-1.10756 -0.1413,-0.24676 -0.3024,-0.19579 -0.4391,-0.19579 -6.8724,0.0243 -13.7447,0.0684 -20.6218,0.0602 a 1.4388913,1.4388913 0 0 0 -1.3659,0.91523 q -7.776,12.85966 -15.5717,25.71237 -16.5148,27.24741 -33.0331,54.49366 c -0.097,0.16103 -0.1993,0.31859 -0.2862,0.48426 -0.1946,0.37537 -0.4159,0.43445 -0.811,0.20506 -1.7088,-1.00907 -3.4362,-1.98571 -5.2516,-3.02955 l 49.0058,-78.59683 c -0.1055,-0.31975 -0.3221,-0.23981 -0.4889,-0.24561 -2.6264,-0.0788 -5.254,-0.19231 -7.878,-0.21548 a 29.117275,29.117275 0 0 0 -10.8253,1.74474 15.285614,15.285614 0 0 0 -7.6301,6.19465 q -13.4308,20.94849 -26.9636,41.83211 c -0.1413,0.22012 -0.2919,0.43561 -0.4379,0.65341 -0.5167,0 -0.4402,-0.42634 -0.4877,-0.72408 a 8.7109692,8.7109692 0 0 1 -0.032,-1.34968 c 0,-15.39915 0.053,-30.7983 -0.048,-46.19629 a 6.6406804,6.6406804 0 0 1 3.8023,-6.41361 c 11.8413,-6.75074 23.6062,-13.6405 35.4093,-20.4596 5.2678,-3.04345 10.5518,-6.05794 15.7814,-9.16511 a 5.9698929,5.9698929 0 0 1 6.6523,0 c 9.6158,5.64319 19.3173,11.15546 28.9829,16.71871 q 10.9353,6.2966 21.8811,12.57119 c 0.5225,0.29774 1.0311,0.61633 1.5559,0.90944 a 5.0616072,5.0616072 0 0 1 2.6785,4.74996 q 0.021,25.12615 0,50.2523 a 3.2519871,3.2519871 0 0 1 -0.1321,1.22224 c -0.5792,0.55957 -0.7889,-0.0684 -0.9998,-0.36609 -0.8689,-1.22225 -1.6486,-2.50937 -2.456,-3.77448 q -9.6992,-15.18251 -19.4633,-30.32446 c -2.1873,-3.41187 -4.4024,-6.80983 -6.5665,-10.2356 -0.5052,-0.79938 -0.5967,-0.81096 -1.1018,0.0475 q -4.8983,8.28811 -9.7907,16.57969 a 1.6844992,1.6844992 0 0 0 0.1992,1.9695 q 4.034,6.50861 8.053,13.02648 l 13.7366,22.22056 q 2.7805,4.50436 5.5702,9.00061 a 2.2765068,2.2765068 0 0 1 0.5492,1.4412 c -0.3719,0.73914 -1.147,0.94652 -1.7923,1.28249 a 13.546664,13.546664 0 0 1 -3.4559,1.80383 c -0.6649,-0.16567 -0.9001,-0.76579 -1.2152,-1.257 -4.253,-6.63373 -8.4515,-13.30106 -12.6767,-19.95101 -4.3456,-6.83531 -8.6704,-13.69611 -13.0346,-20.52447 -0.5595,-0.87585 -0.6487,-0.88164 -1.1747,0 -3.7965,6.38696 -7.5409,12.80405 -11.3466,19.18406 a 1.7007186,1.7007186 0 0 0 0.094,1.98571 c 5.1265,7.90116 10.1348,15.87183 15.2069,23.81238 1.4145,2.21279 2.8395,4.41747 4.2286,6.64647 0.2711,0.43329 0.6418,0.86542 0.3962,1.45164 a 24.070729,24.070729 0 0 1 -4.2866,2.66461 q -7.1064,4.13479 -14.2197,8.25799 a 4.6989881,4.6989881 0 0 1 -5.0975,0 q -10.4778,-6.06142 -20.9937,-12.06838 a 2.7364423,2.7364423 0 0 1 -1.2061,-0.93841 z"
         fill="#2d374b"
         style="stroke-width:1.15853" />
      <path
         id="Path_85"
         data-name="Path 85"
         d="m 2324.9557,599.86772 c 0.01,-0.41359 0.031,-0.82603 0.031,-1.23847 q 0,-25.06937 0.016,-50.13644 a 5.2133743,5.2133743 0 0 0 -2.8477,-4.95502 q -26.3241,-15.09098 -52.6099,-30.25031 a 4.8843525,4.8843525 0 0 0 -5.306,-0.0139 q -14.5975,8.4839 -29.232,16.92377 -11.7417,6.79709 -23.4822,13.59764 a 4.8901451,4.8901451 0 0 0 -2.631,4.61094 q 0.06,24.05451 0.068,48.10902 c 0,0.35683 -0.1448,0.7542 0.1669,1.06932 -1.8537,3.08632 -3.8904,6.05215 -5.8425,9.07243 q -1.4667,2.2684 -2.945,4.52869 c -0.1575,0.24097 -0.3394,0.46341 -0.6511,0.89322 -0.023,-0.50512 -0.048,-0.78432 -0.048,-1.06237 q 0,-31.72164 0.012,-63.44329 a 12.780877,12.780877 0 0 1 6.6778,-11.51229 c 6.8052,-4.04094 13.7007,-7.93128 20.5511,-11.90039 5.7799,-3.34699 11.5401,-6.71946 17.3165,-10.07224 5.3872,-3.12803 10.7199,-6.34989 16.1985,-9.30761 a 13.411116,13.411116 0 0 1 13.6486,0.35451 c 4.4025,2.49778 8.7863,5.04191 13.176,7.56518 q 6.1935,3.56479 12.3858,7.13422 5.7069,3.28558 11.4173,6.56421 5.6617,3.25199 11.3246,6.5005 c 1.659,0.95347 3.3169,1.9081 4.9654,2.87894 a 13.925502,13.925502 0 0 1 6.8933,9.91932 10.015471,10.015471 0 0 1 0.072,1.79919 q 0,31.21421 0.01,62.42958 a 13.406482,13.406482 0 0 1 -4.8218,10.37114 16.065303,16.065303 0 0 1 -2.7804,1.70419 q -8.4573,4.93417 -16.9389,9.82779 -9.0122,5.21338 -18.0324,10.40937 -8.667,5.02106 -17.3154,10.07919 a 12.866608,12.866608 0 0 1 -4.75,1.95907 13.393738,13.393738 0 0 1 -8.3414,-1.06121 c -2.8754,-1.542 -5.6768,-3.21491 -8.5117,-4.83917 q -5.7104,-3.27631 -11.4149,-6.56537 -1.6116,-0.92683 -3.2254,-1.84322 c -0.395,-0.22476 -0.665,-0.45299 -0.3568,-0.96853 1.4227,-2.38309 2.8233,-4.78009 4.239,-7.16781 0.05,-0.0869 0.1773,-0.12744 0.2688,-0.19116 a 33.175597,33.175597 0 0 1 3.8232,2.10273 q 9.318,5.32923 18.6071,10.71059 a 4.3896612,4.3896612 0 0 0 4.7708,-0.051 c 5.8818,-3.45125 11.7938,-6.85269 17.693,-10.2715 0.292,-0.16915 0.5909,-0.32323 0.8875,-0.48311 a 4.865816,4.865816 0 0 1 2.1456,-1.56517 c 5.3292,-3.05388 10.619,-6.168 15.9471,-9.21377 0.4449,-0.25372 0.8457,-0.6453 1.425,-0.57927 l 5.2203,-3.02375 c 0.3186,-0.66731 0.9987,-0.8828 1.5686,-1.21182 2.6264,-1.51651 5.2285,-3.07473 7.878,-4.54259 a 4.5020384,4.5020384 0 0 0 2.397,-4.25643 c 0.027,-2.65766 0,-5.31648 0.013,-7.9753 a 1.9567532,1.9567532 0 0 1 0.2711,-1.41225 z"
         fill="#96bedc"
         style="stroke-width:1.15853" />
      <path
         id="Path_90"
         data-name="Path 90"
         d="m 2324.9615,599.86656 c 0.014,3.29949 0.087,6.60361 0.013,9.89846 a 4.1822847,4.1822847 0 0 1 -2.1885,3.78839 c -3.3226,1.88145 -6.585,3.86948 -9.9378,5.69995 -1.3335,-2.4329 -2.8732,-4.74996 -4.3306,-7.11336 q -11.3536,-18.40205 -22.7326,-36.78325 c -0.4542,-0.7345 -0.8701,-1.49682 -1.3775,-2.19077 a 1.1098695,1.1098695 0 0 1 0,-1.41688 c 1.8108,-3.02839 3.5914,-6.07416 5.3837,-9.1153 l 4.9747,-8.43871 a 0.94651707,0.94651707 0 0 1 0.4391,-0.46341 c 0.8654,1.33346 1.7378,2.67851 2.609,4.02472 q 7.8502,12.22247 15.6969,24.44493 5.3211,8.29274 10.641,16.58664 a 3.374791,3.374791 0 0 0 0.8099,1.07859 z"
         fill="#28a0f0"
         style="stroke-width:1.15853" />
      <path
         id="Path_91"
         data-name="Path 91"
         d="m 2307.6276,622.27712 c -2.1607,1.41804 -4.4523,2.62407 -6.6789,3.93899 -4.0375,2.37383 -8.1005,4.70363 -12.1518,7.0508 -0.2317,0.13092 -0.4634,0.25372 -0.687,0.38 a 1.9127291,1.9127291 0 0 0 -0.4635,-1.00908 q -5.4114,-8.50475 -10.8241,-17.00602 -4.4476,-6.98129 -8.9206,-13.94868 a 1.4330987,1.4330987 0 0 1 -0.079,-1.73779 q 5.9791,-10.06992 11.9085,-20.16996 c 0.094,-0.15525 0.1691,-0.33598 0.402,-0.38579 0.3244,0.073 0.4032,0.39737 0.5572,0.6395 q 10.7744,16.97128 21.5487,33.94486 c 1.5281,2.40858 3.0492,4.82295 4.5866,7.2269 a 3.563631,3.563631 0 0 0 0.7994,1.07859 z"
         fill="#28a0f0"
         style="stroke-width:1.15853" />
    </g>
  </g>
</svg>
